<svg width="29" height="40" viewBox="0 0 29 40" fill="none" xmlns="http://www.w3.org/2000/svg">
<g clip-path="url(#clip0_2102_4881)">
<path fill-rule="evenodd" clip-rule="evenodd" d="M14.5011 17.4177L8.99623 22.9015L14.5011 28.3853L20.0061 22.9015L14.5011 17.4177ZM3.1675 22.9015L14.5011 34.1917L25.8348 22.9015L14.5011 11.6113L3.1675 22.9015Z" fill="#66B1F1"/>
<path fill-rule="evenodd" clip-rule="evenodd" d="M14.5007 5.80569L6.08143 14.1927L14.5007 22.5797L22.92 14.1927L14.5007 5.80569ZM0.252693 14.1927L14.5007 28.3861L28.7487 14.1927L14.5007 -0.000706092L0.252693 14.1927Z" fill="#1C629E"/>
<path fill-rule="evenodd" clip-rule="evenodd" d="M14.4978 28.3825L11.5834 31.2857L14.4978 34.1889L17.4121 31.2857L14.4978 28.3825ZM5.75468 31.2857L14.4978 39.9953L23.2409 31.2857L14.4978 22.5761L5.75468 31.2857Z" fill="#FFCF62"/>
<path d="M3.1675 22.9015L6.08186 19.9983L17.4155 31.2885L14.5011 34.1917L3.1675 22.9015Z" fill="#66B1F1"/>
</g>
<defs>
<clipPath id="clip0_2102_4881">
<rect width="29" height="40" fill="white"/>
</clipPath>
</defs>
</svg>
